<?xml version="1.0" standalone="no"?>
<!DOCTYPE svg PUBLIC "-//W3C//DTD SVG 20010904//EN"
 "http://www.w3.org/TR/2001/REC-SVG-20010904/DTD/svg10.dtd">
<svg version="1.0" xmlns="http://www.w3.org/2000/svg"
 width="192" height="80" viewBox="0 0 232.000000 50.000000"
 preserveAspectRatio="xMidYMid meet">

<g transform="translate(0.000000,50.000000) scale(0.100000,-0.100000)"
fill="#000000" stroke="none">
<path d="M46 488 c3 -4 24 -8 46 -8 23 0 38 3 34 8 -10 10 -86 10 -80 0z"/>
<path d="M175 490 c-27 -7 -25 -8 18 -9 30 -1 46 3 42 9 -7 11 -16 11 -60 0z"/>
<path d="M265 490 c-3 -5 3 -10 14 -10 12 0 21 5 21 10 0 6 -6 10 -14 10 -8 0
-18 -4 -21 -10z"/>
<path d="M440 490 c-95 -5 -69 -6 110 -6 230 -1 270 2 100 8 -47 2 -141 1
-210 -2z"/>
<path d="M793 488 c-2 -5 26 -8 63 -8 37 0 64 3 60 8 -4 4 -32 7 -63 7 -30 0
-57 -3 -60 -7z"/>
<path d="M980 490 c-11 -7 -4 -10 25 -10 29 0 36 3 25 10 -8 5 -19 10 -25 10
-5 0 -17 -5 -25 -10z"/>
<path d="M1140 490 c-11 -7 -6 -10 20 -10 26 0 31 3 20 10 -8 5 -17 10 -20 10
-3 0 -12 -5 -20 -10z"/>
<path d="M1223 488 c-2 -5 121 -7 274 -6 295 2 270 6 -65 10 -112 2 -206 0
-209 -4z"/>
<path d="M1800 490 c-12 -8 -9 -10 13 -10 16 0 26 4 22 10 -8 12 -16 12 -35 0z"/>
<path d="M1965 490 l-100 -6 105 -1 c58 -1 116 3 130 7 24 8 24 8 -5 7 -16 0
-75 -4 -130 -7z"/>
<path d="M938 483 c7 -3 16 -2 19 1 4 3 -2 6 -13 5 -11 0 -14 -3 -6 -6z"/>
<path d="M1068 483 c6 -2 18 -2 25 0 6 3 1 5 -13 5 -14 0 -19 -2 -12 -5z"/>
<path d="M2186 428 c-3 -13 -5 -48 -4 -78 1 -52 1 -51 8 20 8 79 7 96 -4 58z"/>
<path d="M2 380 c0 -14 2 -19 5 -12 2 6 2 18 0 25 -3 6 -5 1 -5 -13z"/>
<path d="M520 305 c0 -76 3 -95 14 -95 11 0 16 14 18 48 2 34 7 47 18 47 11 0
16 -13 18 -47 2 -38 7 -48 21 -48 16 0 17 7 14 53 -6 76 -9 80 -43 73 -29 -5
-30 -4 -30 29 0 24 -5 35 -15 35 -12 0 -15 -17 -15 -95z"/>
<path d="M792 308 l3 -93 28 -3 c19 -2 27 1 27 12 0 9 -4 16 -10 16 -5 0 -10
35 -12 77 -3 65 -6 78 -21 81 -16 3 -18 -5 -15 -90z"/>
<path d="M1090 306 c0 -88 2 -96 19 -96 17 0 20 8 23 48 4 60 21 61 28 2 4
-32 10 -46 23 -48 14 -3 17 5 17 51 0 60 -16 83 -49 72 -17 -5 -20 -1 -23 27
-2 22 -9 34 -20 36 -16 3 -18 -6 -18 -92z"/>
<path d="M1980 306 c0 -89 1 -96 20 -96 15 0 20 7 20 25 0 14 5 25 10 25 6 0
15 -11 20 -25 5 -14 16 -25 25 -25 18 0 19 17 1 50 -11 21 -10 30 1 53 12 23
12 27 -2 27 -8 0 -23 -12 -32 -27 l-18 -27 -5 54 c-4 42 -9 56 -22 58 -16 3
-18 -6 -18 -92z"/>
<path d="M100 300 c0 -82 2 -90 19 -90 15 0 21 8 23 35 4 46 19 47 41 1 9 -20
24 -36 32 -36 20 0 19 18 -4 64 -19 37 -19 38 0 69 23 39 24 47 4 47 -9 0 -25
-16 -36 -35 -27 -44 -39 -44 -39 0 0 28 -4 35 -20 35 -19 0 -20 -7 -20 -90z"/>
<path d="M940 300 l0 -90 41 0 c56 0 79 14 79 50 0 16 -4 31 -9 35 -5 3 -7 21
-4 40 5 31 3 36 -21 45 -15 5 -41 10 -57 10 l-29 0 0 -90z m75 40 c0 -8 -10
-16 -22 -18 -18 -3 -23 2 -23 18 0 16 5 21 23 18 12 -2 22 -10 22 -18z m3 -78
c3 -18 -1 -22 -22 -22 -19 0 -26 5 -26 18 0 39 43 43 48 4z"/>
<path d="M1780 375 c0 -8 9 -15 20 -15 11 0 20 7 20 15 0 8 -9 15 -20 15 -11
0 -20 -7 -20 -15z"/>
<path d="M251 303 c2 -79 9 -88 68 -89 49 -1 52 0 47 20 -3 12 -6 40 -6 64 0
30 -4 42 -14 42 -11 0 -16 -14 -18 -47 -2 -35 -7 -48 -18 -48 -11 0 -16 13
-18 48 -3 39 -6 47 -23 47 -16 0 -19 -7 -18 -37z"/>
<path d="M401 321 c-14 -26 -6 -46 25 -60 32 -14 22 -33 -13 -25 -19 5 -24 3
-21 -7 2 -8 19 -15 37 -17 64 -6 84 45 29 75 l-33 17 30 6 c42 7 38 24 -7 28
-28 2 -39 -1 -47 -17z"/>
<path d="M673 333 c-24 -9 -13 -23 17 -23 40 0 38 -13 -2 -25 -28 -8 -33 -15
-33 -40 0 -29 1 -30 53 -30 l52 -1 0 44 c0 58 -14 82 -48 81 -15 0 -33 -3 -39
-6z m42 -93 c-5 -8 -11 -8 -17 -2 -6 6 -7 16 -3 22 5 8 11 8 17 2 6 -6 7 -16
3 -22z"/>
<path d="M1246 324 c-21 -20 -21 -78 0 -98 18 -18 47 -20 75 -6 14 8 19 21 19
50 0 44 -20 70 -55 70 -13 0 -31 -7 -39 -16z m54 -48 c0 -39 -14 -55 -28 -30
-12 22 -3 64 14 64 9 0 14 -12 14 -34z"/>
<path d="M1365 298 c11 -67 22 -88 45 -88 21 0 23 3 36 55 6 24 8 26 11 10 12
-61 14 -65 37 -65 20 0 25 8 35 48 7 26 14 55 17 65 4 12 0 17 -15 17 -16 0
-21 -9 -27 -45 -7 -52 -14 -52 -23 2 -5 29 -11 39 -28 41 -19 3 -23 -3 -29
-45 -7 -50 -15 -45 -28 20 -4 15 -13 27 -22 27 -13 0 -14 -8 -9 -42z"/>
<path d="M1570 273 c0 -56 2 -64 18 -61 12 2 18 16 22 48 7 60 24 58 28 -3 3
-39 6 -48 20 -45 12 2 18 16 22 48 6 57 24 54 28 -5 3 -37 7 -45 23 -45 16 0
19 7 19 39 0 55 -15 91 -39 91 -11 0 -23 -5 -26 -10 -4 -7 -11 -8 -18 -2 -7 5
-31 10 -54 9 l-43 0 0 -64z"/>
<path d="M1770 326 c0 -8 5 -18 10 -21 6 -3 10 -26 10 -51 0 -33 4 -44 15 -44
13 0 15 11 13 63 -3 56 -5 62 -25 65 -15 2 -23 -2 -23 -12z"/>
<path d="M1864 315 c-23 -36 -12 -93 21 -101 30 -8 57 -2 62 13 3 7 -8 13 -24
15 -23 2 -29 8 -31 36 -2 24 1 32 12 32 9 0 16 -7 16 -15 0 -19 26 -20 34 0 3
8 -2 21 -10 30 -24 23 -61 19 -80 -10z"/>
<path d="M1 230 c-1 -26 2 -31 11 -22 8 8 8 17 0 34 -10 22 -11 21 -11 -12z"/>
<path d="M3 165 c0 -8 4 -12 9 -9 5 3 6 10 3 15 -9 13 -12 11 -12 -6z"/>
<path d="M2180 148 c0 -19 2 -20 10 -8 13 19 13 30 0 30 -5 0 -10 -10 -10 -22z"/>
<path d="M40 119 c0 -5 5 -7 10 -4 6 3 10 8 10 11 0 2 -4 4 -10 4 -5 0 -10 -5
-10 -11z"/>
<path d="M642 123 c269 -2 707 -2 976 0 268 1 48 2 -488 2 -536 0 -756 -1
-488 -2z" fill="#FFF" fill-rule="nonzero"/>
</g>
</svg>
